<svg id="Layer_1" enable-background="new 0 0 512 512" viewBox="0 0 512 512" xmlns="http://www.w3.org/2000/svg" xmlns:xlink="http://www.w3.org/1999/xlink"><linearGradient id="SVGID_1_" gradientTransform="matrix(1 0 0 -1 0 512.61)" gradientUnits="userSpaceOnUse" x1="255.632" x2="255.632" y1="513.315" y2="8.955"><stop offset="0" stop-color="#26f09b"/><stop offset="1" stop-color="#05a0fa"/></linearGradient><g id="Layer_2_00000132801001731195842720000006005060178497960108_"><g id="magnifyne"><path d="m504.8 469.4-146.4-146.4c27.3-35 42-78.2 42-122.5 0-110.4-89.8-200.2-200.2-200.2s-200.2 89.8-200.2 200.2 89.8 200.2 200.2 200.2c44.7 0 88.1-14.9 123.2-42.5l146.3 146.3c10.1 9.3 25.7 8.6 35-1.5 8.7-9.5 8.7-24.1.1-33.6zm-455.3-268.9c0-83.1 67.6-150.6 150.6-150.6s150.6 67.6 150.6 150.6-67.6 150.6-150.6 150.6-150.6-67.6-150.6-150.6z" fill="url(#SVGID_1_)"/></g></g></svg>