<svg id="Capa_1" enable-background="new 0 0 512 512" height="512" viewBox="0 0 512 512" width="512" xmlns="http://www.w3.org/2000/svg"><g><g><path d="m437 251h-140c-8.284 0-15-6.716-15-15s6.716-15 15-15h140c24.813 0 45-20.187 45-45s-20.187-45-45-45-45 20.187-45 45c0 8.284-6.716 15-15 15s-15-6.716-15-15c0-41.355 33.645-75 75-75s75 33.645 75 75-33.645 75-75 75z" fill="#00c0f1"/></g><g><path d="m317 491c-41.355 0-75-33.645-75-75 0-8.284 6.716-15 15-15s15 6.716 15 15c0 24.813 20.187 45 45 45s45-20.187 45-45-20.187-45-45-45h-260c-8.284 0-15-6.716-15-15s6.716-15 15-15h260c41.355 0 75 33.645 75 75s-33.645 75-75 75z" fill="#51faff"/></g><g><path d="m317 341h-61v30h61c24.813 0 45 20.187 45 45s-20.187 45-45 45-45-20.187-45-45c0-8.284-6.716-15-15-15-.338 0-.668.029-1 .05v58.503c13.618 19.019 35.878 31.447 61 31.447 41.355 0 75-33.645 75-75s-33.645-75-75-75z" fill="#00c0f1"/></g><g><path d="m77 311h-62c-8.284 0-15-6.716-15-15s6.716-15 15-15h62c8.284 0 15 6.716 15 15s-6.716 15-15 15z" fill="#51faff"/></g><path d="m145.606 446.394-40-40c-5.858-5.858-15.355-5.858-21.213 0s-5.858 15.355 0 21.213l14.394 14.393h-83.787c-8.284 0-15 6.716-15 15s6.716 15 15 15h83.787l-14.394 14.394c-5.858 5.858-5.858 15.355 0 21.213s15.355 5.858 21.213 0l40-40c5.858-5.858 5.858-15.355 0-21.213z" fill="#00607f"/><g><path d="m237 251h-40c-8.284 0-15-6.716-15-15s6.716-15 15-15h40c8.284 0 15 6.716 15 15s-6.716 15-15 15z" fill="#51faff"/></g><path d="m251.716 110.539c35.573-35.573 32.791-93.823 32.655-96.285-.422-7.634-6.518-13.729-14.151-14.151-2.466-.138-60.713-2.918-96.285 32.655-29.131 29.131-32.54 73.462-32.745 89.918-16.847 21.561-15.37 52.885 4.461 72.716 5.858 5.858 15.355 5.858 21.213 0s5.858-15.355 0-21.213c-8.379-8.38-9.548-21.274-3.52-30.922 17.543-.405 60.112-4.458 88.372-32.718z" fill="#00ccb2"/><g><g><path d="m166.863 174.178c-8.379-8.38-9.548-21.274-3.52-30.922 17.544-.404 60.112-4.458 88.373-32.718 35.573-35.573 32.791-93.823 32.655-96.285-.211-3.817-1.84-7.249-4.371-9.78l-150.398 150.394c-.436 14.623 4.911 29.386 16.049 40.524 5.858 5.858 15.355 5.858 21.213 0 5.857-5.858 5.857-15.355-.001-21.213z" fill="#00969c"/></g></g><g><path d="m367 311h-230c-8.284 0-15-6.716-15-15s6.716-15 15-15h230c8.284 0 15 6.716 15 15s-6.716 15-15 15z" fill="#51faff"/></g><g><path d="m367 281h-111v30h111c8.284 0 15-6.716 15-15s-6.716-15-15-15z" fill="#00c0f1"/></g></g></svg>