<svg height="256" viewBox="0 0 256 256" width="256" xmlns="http://www.w3.org/2000/svg"><g fill="none" stroke-miterlimit="10" stroke-width="0" transform="matrix(2.81 0 0 2.81 1.407 1.407)"><g fill="#7bd8f7"><path d="m21.742 73.944h2.667c.552 0 1-.447 1-1s-.448-1-1-1h-2.667l1.334-2.311c.276-.479.112-1.09-.366-1.366-.48-.276-1.09-.111-1.366.366l-1.334 2.31-1.334-2.31c-.276-.479-.887-.643-1.366-.366-.479.276-.642.888-.366 1.366l1.334 2.311h-2.668c-.552 0-1 .447-1 1s.448 1 1 1h2.668l-1.334 2.311c-.276.479-.112 1.09.366 1.366.158.091.33.134.499.134.346 0 .682-.18.867-.5l1.334-2.31 1.334 2.31c.186.321.521.5.867.5.169 0 .341-.043.499-.134.479-.276.642-.888.366-1.366z"/><path d="m33.828 84.189h-2.667l1.334-2.311c.276-.479.112-1.09-.366-1.366-.48-.277-1.09-.111-1.366.366l-1.334 2.31-1.334-2.31c-.276-.479-.887-.644-1.366-.366-.479.276-.642.888-.366 1.366l1.334 2.311h-2.668c-.552 0-1 .447-1 1s.448 1 1 1h2.668l-1.334 2.311c-.276.479-.112 1.09.366 1.366.158.091.329.134.499.134.346 0 .682-.18.867-.5l1.334-2.31 1.334 2.31c.186.321.521.5.867.5.169 0 .341-.043.499-.134.479-.276.642-.888.366-1.366l-1.334-2.311h2.667c.552 0 1-.447 1-1s-.447-1-1-1z"/><path d="m45.132 71.944h-2.668l1.334-2.311c.276-.479.112-1.09-.366-1.366-.48-.276-1.091-.111-1.366.366l-1.334 2.31-1.334-2.31c-.277-.479-.887-.643-1.366-.366-.479.276-.642.888-.366 1.366l1.334 2.311h-2.667c-.552 0-1 .447-1 1s.448 1 1 1h2.667l-1.334 2.311c-.276.479-.112 1.09.366 1.366.158.091.33.134.499.134.346 0 .682-.18.867-.5l1.334-2.31 1.334 2.31c.186.321.521.5.867.5.169 0 .341-.043.499-.134.479-.276.642-.888.366-1.366l-1.334-2.311h2.668c.552 0 1-.447 1-1s-.448-1-1-1z"/><path d="m56.435 84.189h-2.668l1.334-2.311c.276-.479.112-1.09-.366-1.366s-1.09-.112-1.366.366l-1.333 2.31-1.333-2.31c-.276-.479-.89-.643-1.366-.366-.479.276-.643.888-.366 1.366l1.334 2.311h-2.668c-.553 0-1 .447-1 1s.447 1 1 1h2.668l-1.335 2.311c-.276.479-.112 1.09.366 1.366.157.091.329.134.499.134.346 0 .682-.18.867-.5l1.333-2.31 1.333 2.31c.186.321.521.5.867.5.17 0 .342-.043.499-.134.479-.276.643-.888.366-1.366l-1.334-2.311h2.668c.553 0 1-.447 1-1s-.446-1-.999-1z"/><path d="m65.854 71.944h-2.667l1.334-2.311c.276-.479.112-1.09-.366-1.366-.478-.275-1.09-.114-1.366.366l-1.334 2.31-1.334-2.31c-.277-.48-.89-.642-1.366-.366-.479.276-.643.888-.366 1.366l1.334 2.311h-2.668c-.553 0-1 .447-1 1s.447 1 1 1h2.668l-1.334 2.311c-.276.479-.112 1.09.366 1.366.157.091.329.134.499.134.346 0 .682-.179.867-.5l1.334-2.31 1.334 2.31c.186.321.521.5.867.5.17 0 .342-.043.499-.134.479-.276.643-.888.366-1.366l-1.334-2.311h2.667c.553 0 1-.447 1-1s-.447-1-1-1z"/></g><circle cx="55.192" cy="28.432" fill="#f9c100" r="16.632"/><path d="m55.197 7.645c-.553 0-1-.448-1-1v-5.645c0-.552.447-1 1-1s1 .448 1 1v5.645c0 .552-.447 1-1 1z" fill="#f9c100"/><path d="m82.631 29.434h-5.645c-.553 0-1-.448-1-1s.447-1 1-1h5.645c.553 0 1 .448 1 1s-.448 1-1 1z" fill="#f9c100"/><path d="m39.79 14.026c-.256 0-.512-.098-.707-.293l-3.991-3.991c-.391-.391-.391-1.023 0-1.414s1.023-.391 1.414 0l3.991 3.991c.391.391.391 1.023 0 1.414-.195.196-.451.293-.707.293z" fill="#f9c100"/><path d="m70.604 14.026c-.256 0-.512-.098-.707-.293-.391-.391-.391-1.023 0-1.414l3.991-3.991c.391-.391 1.023-.391 1.414 0s.391 1.023 0 1.414l-3.991 3.991c-.195.196-.451.293-.707.293z" fill="#f9c100"/><path d="m13.958 40.128c-.027-.411-.046-.824-.046-1.242 0-10.182 8.254-18.436 18.436-18.436 7.366 0 13.721 4.321 16.674 10.566 2.224-1.579 4.935-2.516 7.87-2.516 6.791 0 12.405 4.975 13.437 11.475 4.676 1.28 8.117 5.547 8.117 10.629 0 6.092-4.939 11.031-11.031 11.031h-50.015c-6.092 0-11.031-4.939-11.031-11.031 0-4.89 3.184-9.029 7.589-10.476z" fill="#62c3f7"/></g></svg>