<svg id="SVGRoot" height="24" viewBox="0 0 24 24" width="24" xmlns="http://www.w3.org/2000/svg" xmlns:xlink="http://www.w3.org/1999/xlink" xmlns:svg="http://www.w3.org/2000/svg"><linearGradient id="linearGradient34984" gradientUnits="userSpaceOnUse" x1="3" x2="21" y1="12" y2="12"><stop id="stop34978" offset="0" stop-color="#2196f3"/><stop id="stop34980" offset="1" stop-color="#673ab7"/></linearGradient><g id="g14540" fill="url(#linearGradient34984)"><path id="path12939" d="m9.4996536 3.0000001c-3.5837304 0-6.4996536 2.9162527-6.4996536 6.500388 0 3.5841349 2.9159232 6.5003879 6.4996536 6.5003879 1.0965204 0 2.1298624-.274277 3.0369474-.755904l5.196989 5.197575c.743424.743405 1.965415.743405 2.708839 0 .743428-.7434.743428-1.963792 0-2.707192l-5.19894-5.197577c.481572-.907187.755818-1.940645.755818-3.0372899 0-3.5841353-2.915923-6.500388-6.4996534-6.500388zm0 1.0000597c3.0433194 0 5.4997074 2.4566642 5.4997074 5.5003283 0 3.0436639-2.456388 5.5003279-5.4997074 5.5003279-3.0433202 0-5.4997069-2.456664-5.4997069-5.5003279 0-3.0436641 2.4563867-5.5003283 5.4997069-5.5003283zm5.1950354 9.4029052 5.040747 5.039363c.361243.361232.361243.931815 0 1.293046-.361244.361232-.93361.361232-1.294853 0l-5.038793-5.039364c.4891-.368336.924604-.80389 1.292899-1.293045z" fill="url(#linearGradient34984)" stroke-linecap="round" stroke-linejoin="round"/></g></svg>